<svg xmlns="http://www.w3.org/2000/svg" width="400" height="200" viewBox="0 0 105.833 52.917"><path d="M78.391 1.081l-12.047-.036h0l-.183.84s2.848 1.387 3.651 2.117l.947.869h0l-3.822 3.746c1.432 1.16 2.717 2.461 3.873 3.886h0l3.639-3.792h0l3.213 4.308h0 .73zm-3.569 10.526l-2.734 2.709h0l-.001.001a22.58 22.58 0 0 1 3.519 11.91c.128 12.531-9.926 22.793-22.457 22.921S30.356 39.221 30.228 26.69 40.154 3.897 52.685 3.769A22.58 22.58 0 0 1 65.171 7.36h0l2.807-2.663C63.585 1.645 58.375 0 52.921 0l-.275.001c-7.067.072-13.683 2.892-18.629 7.94a26.28 26.28 0 0 0-7.558 18.787c.072 7.019 2.859 13.603 7.849 18.539a26.29 26.29 0 0 0 18.603 7.649l.275-.001c14.589-.149 26.336-12.139 26.187-26.727-.054-5.279-1.644-10.311-4.552-14.581M38.7 24.593h.934 0l-1.562 2.889h0l-1.583-2.888h0l1.135-.001h0v-.719h0-4.693 0v.719h0 1.074 0l2.183 3.966h0l2.527.002h0l2.145-3.968h0l1.075.001h0v-.719h0H38.7zm15.867 3.241h-1.001 0v-3.241h0 1.079 0v-.718h0l-4.333-.001h0v.718h0 1.091 0l.001 3.242h0-1.092 0v.727h0 6.504 0v-2.17h0-.715c0 .831-.608 1.443-1.535 1.443m-8.777-4.053c-2.152 0-3.294 1.073-3.294 2.42 0 1.366 1.1 2.454 3.307 2.454s3.294-1.089 3.294-2.454c0-1.347-1.155-2.42-3.307-2.42m-.024 4.137c-.786-.014-1.131-.883-1.116-1.746.016-.894.443-1.673 1.179-1.66s1.125.807 1.109 1.7c-.015.843-.363 1.72-1.172 1.705m16.616-3.325h.934 0l-1.562 2.889h0l-1.583-2.888h0l1.135-.001h0v-.719h0-4.693 0l-.001.719h0 1.074 0l2.183 3.966h0l2.527.002h0l2.146-3.968h0l1.075.001h0v-.719h0-3.235zm7.078-.834c-2.169 0-3.321 1.082-3.321 2.44 0 1.377 1.109 2.474 3.334 2.474s3.321-1.097 3.321-2.474c0-1.358-1.164-2.44-3.334-2.44m-.024 4.171c-.792-.014-1.14-.89-1.125-1.76.016-.901.447-1.687 1.189-1.674s1.134.814 1.118 1.714c-.015.85-.366 1.734-1.182 1.719" fill="#010101"/></svg>