<svg xmlns="http://www.w3.org/2000/svg" viewBox="0 0 105.833 52.917" height="200" width="400"><path d="M52.917 0C30.333 0 12.023 11.846 12.023 26.453c0 14.613 18.31 26.464 40.894 26.464S93.81 41.072 93.81 26.453 75.5 0 52.917 0zm0 41.56c-3.36 0-6.1-6.616-6.272-14.94 2.02.177 4.122.274 6.272.274s4.25-.097 6.272-.274c-.172 8.32-2.913 14.94-6.272 14.94zM47.06 20.01c.914-5.885 3.192-10.06 5.858-10.06s4.944 4.176 5.858 10.06c-1.876.166-3.832.258-5.858.258s-3.982-.09-5.858-.258zm5.858-16.182c-4.385 0-8.126 6.568-9.507 15.736-8.314-1.295-14.12-4.25-14.12-7.685 0-4.633 10.577-8.39 23.626-8.39s23.626 3.757 23.626 8.39c0 3.434-5.804 6.4-14.12 7.685-1.38-9.17-5.122-15.736-9.507-15.736zm-35.03 21.637c0-4.482 1.725-8.7 4.73-12.302a6.29 6.29 0 0 0-.054.769c0 5.65 8.47 10.464 20.288 12.238-.01.408-.01.822-.01 1.236 0 10.53 2.95 19.445 7.03 22.47-17.924-1.08-31.983-11.598-31.983-24.41zm38.078 24.41c4.08-3.026 7.03-11.942 7.03-22.47l-.01-1.236c11.813-1.774 20.288-6.584 20.288-12.238 0-.258-.02-.516-.054-.77 3.004 3.622 4.73 7.82 4.73 12.302 0 12.813-14.06 23.33-31.983 24.41zm0 0" fill="#282830"/></svg>