<svg xmlns="http://www.w3.org/2000/svg" height="200" width="400" ><path d="M0-824h1024V200H0z" fill="#fff" fill-opacity="0"/><path d="M200 190.8c-49.8 0-90.6-41-90.6-90.8 0-11.2 2-21.8 5.8-31.8l53 106.6c.6 1.4 1.6 2.6 3.2 2.6s2.6-1.2 3.2-2.6l24.4-54.6c.2-.6.6-1.2 1.2-1.2s.8.6 1.2 1.2l24.4 54.6c.6 1.4 1.6 2.6 3.2 2.6s2.6-1.2 3.2-2.6l53-106.6c3.8 10 5.8 20.6 5.8 31.8-.4 49.8-41.2 90.8-91 90.8zm0-111.4c-.6 0-.8-.6-1.2-1.2l-28.4-64C179.6 10.8 189.6 9 200 9s20.4 1.8 29.6 5.2l-28.4 64c-.4.8-.6 1.2-1.2 1.2zm-29 65.8c-.6 0-.8-.6-1.2-1.2l-46-92.8C132 38.6 143 28 156.4 20.6l33.2 73.8c.4 1.2 1.4 1.6 2.4 1.6h16c1.2 0 2-.2 2.6-1.6l33.2-73.8c13.2 7.4 24.4 18 32.6 30.6L230 144c-.2.6-.6 1.2-1.2 1.2s-.8-.6-1.2-1.2l-17.4-39.6c-.6-1.4-1.4-1.6-2.6-1.6h-16c-1.2 0-2 .2-2.6 1.6L172.2 144c-.2.6-.6 1.2-1.2 1.2zm29 54.8c55.4 0 100-44.6 100-100S255.4 0 200 0 100 44.6 100 100s44.6 100 100 100z" fill="#001e50"/></svg>