<svg xmlns="http://www.w3.org/2000/svg" width="400" height="200" ><path d="M113.401 11.61l-.002 1.818-.323 11.919c-.385 13.449-.253 26.885.879 40.303.764 9.053 2.007 18.032 3.899 26.919 2.926 13.742 7.345 26.97 13.96 39.391 15.242 28.617 37.834 49.506 66.985 63.458.904.433 1.626.348 2.486-.056 7.167-3.36 14.038-7.24 20.552-11.734 21.546-14.866 38.236-33.899 49.321-57.707 6.931-14.886 11.029-30.588 13.352-46.794 1.611-11.237 2.429-22.539 2.492-33.882.052-9.223-.151-18.448-.265-27.672-.024-1.953-.153-3.905-.238-5.973-28.004-4.877-56.156-7.373-84.507-7.489-29.687-.12-59.163 2.389-88.592 7.499zm-3.701-3.747C136.424 3.235 163.276.606 190.341.092c33.544-.638 66.822 2.047 99.897 7.757.056.37.128.654.138.94.4 11.475.737 22.952.546 34.435-.198 11.829-.929 23.625-2.614 35.346-2.186 15.206-5.842 30.023-11.897 44.184-11.948 27.94-30.969 49.903-56.314 66.496-6.083 3.982-12.467 7.426-19.063 10.484-.735.342-1.323.363-2.062.01-40.319-19.285-67.72-49.877-81.087-92.725-2.955-9.474-4.889-19.181-6.274-29.006-2.081-14.757-2.713-29.597-2.564-44.476l.551-24.278c.01-.433.063-.865.104-1.397" fill="#231f20"/><path d="M283.268 14.477c-55.582-9.286-110.999-9.286-166.494-.01-.038.601-.084 1.081-.095 1.561l-.329 14.568c-.163 12.22-.029 24.431 1.131 36.614.866 9.092 2.182 18.107 4.208 27.014 2.698 11.859 6.557 23.32 12.099 34.16 14.512 28.385 36.398 49.225 64.921 63.242.94.462 1.669.431 2.592-.014 14.583-7.037 27.626-16.252 39.097-27.674 17.46-17.385 29.264-38.068 35.875-61.766 4.883-17.502 6.848-35.407 7.294-53.506.172-6.964.082-13.935.031-20.902-.031-4.363-.211-8.725-.33-13.287zM113.401 11.61c29.429-5.11 58.905-7.619 88.592-7.499 28.351.116 56.503 2.612 84.507 7.489l.238 5.973.265 27.672c-.063 11.343-.881 22.645-2.492 33.882-2.323 16.206-6.421 31.908-13.352 46.794-11.086 23.809-27.775 42.841-49.321 57.707-6.514 4.495-13.385 8.374-20.552 11.734-.859.404-1.582.489-2.486.056-29.152-13.952-51.743-34.841-66.985-63.458-6.616-12.421-11.034-25.649-13.96-39.391-1.892-8.886-3.135-17.866-3.899-26.919-1.133-13.418-1.264-26.854-.879-40.303l.323-11.919c.014-.536.002-1.072.002-1.818" fill="#fff"/><path d="M163.637 70.664l-.125 2.739c2.924-.311 3.389-.825 2.609-2.871zm-12.834 26.143c-1.787.443-3.096 1.097-3.86 2.605l2.891 3.326.275-1.026.694-4.905zm18.976 4.101l-.325-.322-9.712 8.011.138.275 5.209-1.836c.259-.095.509-.319.675-.547l4.015-5.581zm101.177-76.213l-16.087-1.789v1.998l6.998.791v10.079l2.208.294V25.961l6.881.729v-1.996zm-98.389-3.71l-2.182.114v1.703l.008 6.771c.035 2.495.878 3.316 3.393 3.406l.294.004 9.409-.38c2.533-.147 3.339-1.067 3.36-3.646l.001-7.213c-.001-.38-.045-.759-.073-1.193h-2.023l-.072 1.504-.01 7.066c-.011 1.205-.247 1.485-1.46 1.547l-9.262.37c-1.085.033-1.355-.278-1.379-1.421l-.006-3.68v-4.952zm-41.46 11.902l7.935-.911 3.619-.542c1.185-.26 2.087-1.023 2.239-2.252.154-1.247.148-2.536.024-3.788-.112-1.134-.9-1.823-2.045-1.991-.526-.077-1.074-.107-1.602-.056l-7.151.754-5.064.654v12.109l2.044-.244v-3.733zm119.852-4.224h.009v-2.792l-.003-.294c-.081-1.606-.78-2.534-2.317-3.015a6.64 6.64 0 0 0-1.433-.294l-8.933-.668c-.535-.037-1.079-.02-1.613.035-1.56.158-2.361.867-2.422 2.422l.01 6.756c.067 1.522.827 2.291 2.314 2.643.663.157 1.35.235 2.03.292l6.443.491 3.52.097c1.52-.074 2.312-.916 2.384-2.44l.01-3.232zm-35.221-6.174l13.239.481v-1.94c-5.148-.252-10.207-.542-15.412-.553l.006 12.072 15.505.593-.091-1.986-13.238-.544v-3.006l5.94.003c1.935.012 3.869.353 5.786.177v-1.92l-11.736-.474v-2.9zm-9.585 7.973c-3.621 0-7.05.017-10.479-.01-1.079-.008-1.479-.439-1.504-1.548-.034-1.52-.015-3.041-.009-4.562.007-1.799.239-2.054 2.028-2.061l9.711.015h1.607v-1.922c-.324-.035-.56-.082-.797-.084l-10.594-.024c-.535.001-1.077.081-1.603.189-1.492.305-2.328 1.073-2.397 2.563-.107 2.3-.098 4.611-.001 6.911.058 1.367.873 2.113 2.228 2.346a11.87 11.87 0 0 0 1.902.164l10.74.051c.424.001.848-.06 1.379-.1.06-2.419.1-4.738-.014-7.073h-8.333v1.954h6.134v3.189zm-40.976 1.029l-13.16.916v-3.166l11.667-.904v-1.976l-11.649.84v-2.897l13.112-.995c.037-.406.084-.693.083-.98 0-.278-.048-.556-.093-1.018l-15.257 1.159V34.62l15.298-1.165v-1.964zm46.625 53.954c-.078-.489-.111-.774-.17-1.053l-1.823-8.622c-.238-1.096-.296-2.106.532-3.039.515-.58.896-1.284 1.307-1.951 2.395-3.885 2.37-2.746 1.296-7.777-.041-.191-.068-.395-.158-.563-.112-.209-.242-.463-.435-.566-1.203-.643-2.358-1.316-3.867-.993l-12.095 2.426c-1.711.349-2.65 1.456-2.9 3.361.855.157 1.727.268 2.572.485 1.245.319 2.374.142 3.56-.36 2.479-1.049 5.031-1.922 7.517-2.955.956-.397 1.808-.297 2.686.073 1.461.617 2.104 2.754 1.183 4.026a132.43 132.43 0 0 1-3.367 4.456c-.505.638-.644 1.238-.389 2.031l2.734 8.839c.268.89.76 1.564 1.814 2.183zm-48.8 6.021l-.056.301c.434.176.862.367 1.301.527l7.048 2.557c1.809.675 2.396 2.173 1.498 3.857-1.619 3.038-3.513 5.901-5.697 8.561-.417.508-1.005.985-1.612 1.208-2.114.778-4.277 1.421-6.408 2.153-.736.253-1.318.121-1.879-.391-.688-.628-1.402-1.228-2.116-1.827-.24-.201-.515-.36-.91-.633-.149 1.885-.351 3.519.396 5.2.691 1.555 1.084 3.247 1.541 4.898.379 1.369.637 2.771.993 4.146.25.967.533 1.196 1.465.983 1.43-.328 2.87-.684 4.229-1.221.717-.283 1.272-.974 1.9-1.48-.455-.201-.778-.191-1.09-.124-1.15.248-2.288.552-3.444.761-1.019.184-1.204.045-1.406-.965a158.11 158.11 0 0 1-.782-4.341c-.224-1.315-.154-1.411 1.194-1.873l8.903-3.04c.769-.259 1.45-.604 1.864-1.334l6.51-11.526c.198-.354.341-.906.208-1.248-.484-1.241-1.086-2.41-2.585-2.768l-9.279-2.281c-.572-.136-1.191-.073-1.788-.102zm-.259-22.783l.11.346c1.058 0 2.122.065 3.175-.013 2.386-.176 4.812.003 7.141-.707l8.963-2.807c.604-.201 1.276-.64 1.598-1.165 1.613-2.627 3.123-5.318 4.661-7.992.066-.114.053-.273.107-.588-2.128-.079-4.24-.366-6.226.428-3.36 1.343-6.679 2.793-9.97 4.299-.808.369-1.515 1.056-2.132 1.722-.963 1.04-1.862 2.15-2.69 3.301-.861 1.196-1.909 2.063-3.324 2.505-.493.154-.944.443-1.414.67zm39.909 102.613c.085-1.533-.102-2.964-.768-4.323s-1.234-2.78-1.784-4.197l-5.078-13.331c-.36-.985-.554-2.127-.458-3.163.275-2.977.595-5.963 1.153-8.897l4.689-23.51c.354-1.771-.341-3.395-.722-5.079-.308.397-.501.787-.656 1.191l-2.715 7.151c-2.694 7.423-5.223 14.898-7.229 22.544-.551 2.1-.4 3.978.471 5.978 3.709 8.511 7.984 16.73 12.534 24.812.163.289.374.55.562.823zm18.37-104.962c1.973.22 3.618.509 5.314-.097 1.285-.459 2.679-.604 3.989-1.004 1.561-.477 2.866-.143 4.108.866l8.861 7.067c.917.71 1.954 1.3 3.007 1.793 1.953.915 3.954 1.724 5.941 2.565 1.078.456 1.746 1.228 1.958 2.39.07.385.206.76.261 1.147l1.753 12.228c.38 2.522-.05 4.875-1.219 7.12l-4.483 8.61c-.339.633-.791 1.323-1.378 1.681-1.863 1.136-2.67 2.7-2.495 4.86.063.783-.074 1.582-.12 2.374.56-.329.875-.692 1.16-1.077 4.081-5.496 7.412-11.438 10.391-17.585.251-.519.439-1.107.491-1.678.659-7.316.51-14.602-.826-21.846-.189-1.028-.628-1.79-1.499-2.401-6.358-4.464-13.011-8.413-20.044-11.724-1.435-.675-2.78-.779-4.236-.144l-9.867 4.233c-.29.125-.551.318-1.066.622zM144.88 83.559c-.101 1.65-.452 3.076-1.591 4.225-1.035 1.043-1.984 2.175-2.934 3.299-.674.799-.728 1.159-.111 1.96 1.197 1.552 2.452 3.061 3.739 4.54.315.362.844.538 1.386.867l1.111-4.951c.213-1.027.73-1.607 1.821-1.804 2.845-.513 5.671-1.132 8.509-1.686l5.332-.972c-.452-.542-.739-.927-1.068-1.271-1.017-1.064-2.11-2.062-3.061-3.181-1.165-1.373-2.557-2.027-4.365-1.981-1.052.027-2.11-.172-3.165-.269l-.106-.287c.367-.273.715-.578 1.108-.807.291-.169.644-.233.964-.354l14.853-5.624c1.558-.588 2.627-1.689 3.402-3.126-.221.002-.408.054-.535.17-1.733 1.583-3.852 2.277-6.102 2.694-.722.134-1.43.339-2.145.514-.872.213-1.705.261-2.578-.132-.447-.201-1.048-.198-1.55-.112-1.061.181-2.1.483-3.152.72-.287.064-.588.07-1.136.13.888-.911 1.593-1.55 2.561-1.875 1.022-.343 2.009-.79 3.03-1.134.776-.261 1.231-.655 1.274-1.554.045-.925.307-1.838.4-2.763.07-.696.389-1.171.935-1.577 1.221-.906 2.422-1.841 3.62-2.777.342-.267.762-.504.843-1.207-1.817 1.08-3.424 2.123-5.11 3.017-2.967 1.573-5.382 3.707-7.255 6.505-.529.791-1.31 1.449-2.075 2.039l-10.645 8.127c-1.001.778-1.907 1.699-2.759 2.642-1.013 1.121-.753 2.41.634 3.352l2.11-1.517c1.073-.776 2.149-1.523 2.712-2.825.181-.419.721-.682 1.096-1.016zm52.221-32.034l.03.42c.765.023 1.532.09 2.295.063l13.375-.526c1.606-.077 3.115.145 4.575.821l6.706 3.01c.887.372 1.854.641 2.808.749 1.849.208 3.725.187 5.57.42 1.094.138 2.258.387 3.205.918 3.932 2.205 7.803 4.519 11.671 6.833.843.504 1.667.886 3.009.777l-8.153-7.789c-.175-.166-.398-.287-.611-.408-6.189-3.498-12.399-6.953-18.872-9.911a11.54 11.54 0 0 0-4.398-1.052l-8.963-.397c-8.389-.309-16.763-.063-25.133.57-1.453.11-2.395.674-3.028 1.917-.863 1.694-2.173 2.99-3.62 4.198-2.788 2.328-5.585 4.636-8.685 6.546-.64.394-1.281.807-1.569 1.806l3.886-2.158 15.662-8.444c1.361-.736 2.775-1.156 4.342-1.191 2.45-.056 4.896-.302 7.346-.336l18.534-.134a4.86 4.86 0 0 1 2.92.915c-7.67.674-15.31 1.308-22.903 2.385zm-9.925 32.436l-.519.038c.066 1.153.098 2.31.206 3.459.146 1.56.349 3.115.528 4.672.134 1.163-.099 2.233-.729 3.23-.734 1.16-1.395 2.366-2.153 3.51-5.529 8.352-11.586 16.309-18.067 23.941-.987 1.163-1.671 2.39-1.827 3.918l-.898 8.183a4.95 4.95 0 0 0 .79 3.364c.938 1.436 1.843 2.898 2.86 4.278 5.419 7.351 11.307 14.31 17.581 20.947 1.972 2.086 4.077 3.954 6.767 5.074.858.357 1.663.836 2.503 1.239.268.128.568.188.854.279l.18-.28c-.519-.482-.973-1.073-1.568-1.427-2.093-1.246-3.838-2.867-5.441-4.678-5.987-6.763-11.615-13.811-16.791-21.214-1.094-1.565-2.065-3.217-3.074-4.84-.585-.941-.873-1.97-.752-3.087l.657-5.844c.136-1.059.704-1.89 1.493-2.624 1.758-1.637 3.502-3.293 5.187-5.005 4.871-4.948 3.784-3.144 6.943-9.872 2.436-5.189 4.656-10.478 6.976-15.722.383-.865.692-1.758.466-2.706zm21.947 81.41l2.869-5.124a13.32 13.32 0 0 1 3.32-4.079l23.742-19.554c1.123-.917 1.857-1.906 2.203-3.327 1.431-5.877 2.365-11.822 2.738-17.86.304-4.91.209-9.804-.311-14.696-.119-1.12-.504-2.079-1.127-2.981-4.164-6.031-8.893-11.598-13.92-16.919-.586-.62-1.285-1.017-2.253-1.173.059.462.081.843.16 1.212l2.762 12.944c.219 1.062.701 1.896 1.462 2.645 2.489 2.446 4.803 5.044 6.796 7.919.92 1.326 1.464 2.783 1.55 4.382.409 7.604.354 15.196-.478 22.778-.168 1.53-.81 2.584-1.975 3.578l-21.385 18.471c-1.816 1.578-3.554 3.244-4.599 5.481-.033.07-.161.095-.263.151-1.271-3.363-1.99-6.735-.914-10.332 1.207-4.037 2.259-8.121 3.373-12.186.151-.553.269-1.114.402-1.671l-.295-.121c-.209.414-.44.819-.625 1.244l-4.188 9.727c-.973 2.355-1.82 4.761-2.739 7.138-.483 1.249-.482 2.44.064 3.7 1.033 2.383 1.96 4.812 2.94 7.219.161.397.37.774.689 1.436zm74.146-150.893l.33 13.287-.031 20.902c-.446 18.099-2.411 36.004-7.294 53.506-6.612 23.698-18.415 44.381-35.875 61.766-11.471 11.421-24.514 20.637-39.097 27.674-.922.445-1.652.476-2.592.014-28.524-14.018-50.409-34.857-64.921-63.242-5.543-10.841-9.401-22.302-12.099-34.16-2.026-8.907-3.342-17.922-4.208-27.014-1.16-12.183-1.294-24.393-1.131-36.614l.329-14.568c.011-.48.058-.96.095-1.561 55.494-9.277 110.912-9.277 166.494.01" fill="#231f20"/><g fill="#fff"><path d="M209.122 165.371l-.689-1.436-2.94-7.219c-.546-1.26-.548-2.451-.064-3.7l2.739-7.138c1.348-3.262 2.783-6.488 4.188-9.727.185-.425.415-.83.625-1.244l.295.121c-.133.557-.251 1.119-.402 1.671l-3.373 12.186c-1.076 3.597-.357 6.969.914 10.332.102-.056.231-.081.263-.151 1.045-2.238 2.783-3.903 4.599-5.481l21.385-18.471c1.165-.994 1.807-2.048 1.975-3.578.833-7.582.887-15.175.478-22.778-.086-1.599-.63-3.055-1.55-4.382-1.994-2.875-4.307-5.473-6.796-7.919-.762-.749-1.243-1.583-1.462-2.645l-2.762-12.944c-.079-.369-.101-.75-.16-1.212.968.156 1.667.552 2.253 1.173 5.027 5.322 9.755 10.888 13.92 16.919.623.903 1.008 1.861 1.127 2.981.52 4.892.615 9.786.311 14.696-.373 6.038-1.307 11.983-2.738 17.86-.346 1.421-1.08 2.41-2.203 3.327l-23.742 19.554a13.32 13.32 0 0 0-3.32 4.079c-.871 1.639-1.81 3.241-2.869 5.124m-21.947-81.41l2.172 8.832c.226.948-.084 1.841-.466 2.706l-6.976 15.722c-3.158 6.729-2.072 4.925-6.943 9.872-1.685 1.712-3.428 3.368-5.187 5.005-.789.734-1.357 1.565-1.493 2.624-.25 1.944-.446 3.895-.657 5.844-.121 1.117.166 2.146.752 3.087 1.01 1.623 1.98 3.275 3.074 4.84 5.176 7.403 10.804 14.451 16.791 21.214 1.603 1.81 3.348 3.432 5.441 4.678.595.354 1.049.945 1.568 1.427l-.18.28c-.285-.091-.586-.15-.854-.278-.84-.402-1.645-.881-2.503-1.239-2.691-1.12-4.795-2.988-6.767-5.074-6.274-6.637-12.162-13.596-17.581-20.947-1.017-1.379-1.922-2.842-2.86-4.278a4.95 4.95 0 0 1-.79-3.364l.898-8.183c.156-1.528.84-2.756 1.827-3.918 6.482-7.632 12.538-15.589 18.067-23.941.757-1.144 1.419-2.35 2.153-3.51.63-.997.863-2.068.729-3.23l-.528-4.672c-.107-1.15-.14-2.306-.206-3.459l.519-.038m9.925-32.436c7.593-1.077 15.233-1.711 22.903-2.385-.876-.63-1.865-.919-2.92-.915l-18.534.134c-2.45.034-4.896.281-7.346.336-1.567.036-2.981.455-4.342 1.191L171.2 58.331l-3.886 2.158c.288-.999.929-1.412 1.569-1.806 3.1-1.911 5.897-4.219 8.685-6.546 1.447-1.208 2.757-2.504 3.62-4.198.633-1.243 1.575-1.807 3.028-1.917 8.37-.633 16.744-.879 25.133-.57l8.963.397a11.54 11.54 0 0 1 4.398 1.052c6.473 2.959 12.683 6.414 18.872 9.911.213.12.436.241.611.408l8.153 7.789c-1.342.109-2.165-.273-3.009-.777l-11.671-6.833c-.947-.531-2.11-.78-3.205-.918-1.845-.233-3.721-.212-5.57-.42a10.34 10.34 0 0 1-2.808-.749c-2.259-.948-4.482-1.981-6.706-3.01-1.46-.675-2.969-.898-4.575-.821l-13.375.526c-.763.027-1.53-.04-2.295-.063l-.03-.42M144.88 83.559c-.376.334-.916.598-1.096 1.016-.563 1.302-1.638 2.049-2.712 2.825l-2.11 1.517c-1.388-.942-1.647-2.232-.634-3.352.852-.943 1.758-1.864 2.759-2.642l10.645-8.127c.765-.59 1.546-1.249 2.075-2.039 1.873-2.798 4.288-4.931 7.255-6.505 1.686-.894 3.293-1.938 5.11-3.017-.081.703-.501.94-.843 1.207l-3.62 2.777c-.546.405-.865.88-.935 1.577-.093.926-.356 1.838-.4 2.763-.043.899-.498 1.293-1.274 1.554-1.021.344-2.008.791-3.03 1.134-.968.325-1.673.964-2.561 1.875.548-.06.849-.066 1.136-.13 1.052-.236 2.092-.539 3.152-.72.502-.086 1.103-.089 1.55.112.872.393 1.706.345 2.578.132.714-.174 1.423-.38 2.145-.514 2.249-.417 4.368-1.111 6.102-2.694.128-.117.314-.169.535-.17-.775 1.438-1.844 2.538-3.402 3.126l-14.853 5.624c-.321.121-.673.185-.964.354-.393.229-.741.534-1.108.807l.106.287c1.055.097 2.113.296 3.165.269 1.808-.047 3.2.608 4.365 1.981.95 1.12 2.044 2.117 3.061 3.181.329.344.615.729 1.068 1.271l-5.332.972-8.509 1.686c-1.091.197-1.608.777-1.821 1.804-.327 1.58-.704 3.15-1.111 4.951-.542-.329-1.071-.505-1.386-.867-1.287-1.479-2.542-2.989-3.739-4.54-.618-.801-.563-1.161.111-1.96.949-1.125 1.899-2.256 2.934-3.299 1.139-1.149 1.49-2.575 1.591-4.225m76.141-17.225l1.066-.622 9.867-4.233c1.456-.636 2.801-.532 4.236.144 7.033 3.311 13.687 7.26 20.044 11.724.871.612 1.31 1.373 1.499 2.401 1.336 7.244 1.485 14.53.826 21.846-.052.571-.24 1.159-.491 1.678-2.979 6.147-6.31 12.089-10.391 17.585-.286.385-.6.748-1.16 1.077.046-.792.183-1.591.12-2.374-.175-2.161.632-3.724 2.495-4.86.587-.358 1.039-1.049 1.378-1.681l4.483-8.61c1.169-2.245 1.599-4.598 1.219-7.12L254.46 81.06c-.056-.387-.191-.761-.261-1.147-.212-1.162-.88-1.934-1.958-2.39-1.987-.841-3.989-1.65-5.941-2.565-1.053-.493-2.089-1.083-3.007-1.793-2.987-2.313-5.929-4.685-8.861-7.067-1.242-1.009-2.547-1.343-4.108-.866-1.31.4-2.704.545-3.989 1.004-1.697.607-3.341.317-5.314.097m-18.369 104.961l-.562-.823c-4.55-8.083-8.825-16.301-12.534-24.812-.872-2-1.022-3.877-.471-5.978 2.007-7.647 4.536-15.121 7.229-22.544.87-2.397 1.803-4.77 2.715-7.151.155-.404.348-.794.656-1.191.381 1.684 1.075 3.308.722 5.079l-4.689 23.51c-.558 2.934-.878 5.921-1.153 8.897-.096 1.036.098 2.179.458 3.163l5.078 13.331c.549 1.417 1.115 2.834 1.784 4.197s.853 2.789.768 4.323M162.743 68.683c.47-.227.921-.516 1.414-.67 1.415-.443 2.463-1.309 3.324-2.505a34.69 34.69 0 0 1 2.69-3.301c.617-.667 1.324-1.353 2.132-1.722 3.29-1.506 6.61-2.955 9.97-4.299 1.986-.794 4.098-.507 6.226-.428-.054.314-.042.474-.107.588l-4.661 7.992c-.322.525-.995.964-1.598 1.165-2.97.988-5.968 1.894-8.963 2.807-2.329.71-4.755.53-7.141.707-1.053.078-2.116.013-3.175.013l-.11-.346m.259 22.783c.597.029 1.216-.034 1.788.102l9.279 2.281c1.499.358 2.101 1.527 2.585 2.768.134.342-.01.894-.208 1.248l-6.51 11.526c-.414.73-1.094 1.076-1.864 1.334l-8.903 3.04c-1.348.462-1.417.557-1.194 1.873l.782 4.341c.201 1.009.386 1.149 1.406.965 1.156-.209 2.295-.514 3.444-.761.311-.067.635-.078 1.09.124-.628.506-1.184 1.197-1.9 1.48-1.359.537-2.799.893-4.229 1.221-.932.214-1.215-.016-1.465-.982-.356-1.376-.614-2.778-.993-4.146-.457-1.651-.85-3.343-1.541-4.898-.746-1.681-.545-3.315-.396-5.2.395.273.67.432.91.633l2.116 1.827c.561.512 1.143.644 1.879.391l6.408-2.153c.607-.223 1.195-.7 1.612-1.208 2.183-2.66 4.078-5.523 5.697-8.561.898-1.684.311-3.181-1.498-3.857l-7.048-2.557c-.44-.16-.868-.351-1.301-.527l.056-.301m48.8-6.021c-1.055-.619-1.546-1.292-1.815-2.183l-2.734-8.839c-.255-.793-.116-1.393.389-2.031 1.154-1.46 2.275-2.948 3.367-4.456.92-1.271.278-3.409-1.183-4.026-.877-.37-1.73-.47-2.686-.073-2.486 1.033-5.038 1.907-7.517 2.955-1.187.502-2.316.679-3.56.36-.845-.217-1.718-.328-2.572-.485.25-1.905 1.188-3.013 2.9-3.361l12.095-2.426c1.509-.323 2.664.35 3.867.993.193.103.323.357.435.566.09.168.117.372.158.563 1.074 5.032 1.099 3.893-1.296 7.777-.411.667-.792 1.371-1.307 1.951-.828.933-.77 1.943-.532 3.039l1.823 8.622c.059.279.092.564.17 1.053m-46.625-53.953v1.964l-15.298 1.165V22.469l15.257-1.159.093 1.018c0 .287-.046.574-.083.98l-13.112.995v2.897l11.649-.84v1.976l-11.667.904v3.166l13.16-.916"/><path d="M206.153 30.462v-3.189h-6.134v-1.954h8.333l.014 7.073-1.379.1-10.74-.051a11.87 11.87 0 0 1-1.902-.164c-1.356-.233-2.17-.979-2.228-2.346v-6.911c.069-1.49.905-2.258 2.397-2.563.526-.107 1.068-.188 1.603-.189l10.594.025c.237.001.473.048.797.084v1.922c-.559 0-1.083.001-1.607 0l-9.711-.015c-1.788.006-2.02.261-2.028 2.061l.009 4.562c.025 1.109.425 1.54 1.504 1.548l10.479.01m9.585-7.973v2.9l11.736.474v1.92c-1.918.176-3.851-.165-5.786-.177l-5.94-.003v3.006l13.238.544.09 1.986-15.505-.593-.006-12.071c5.205.011 10.264.302 15.412.553v1.94l-13.239-.481"/><path d="M248.867 28.48l-.006-2.641c-.037-1.064-.345-1.447-1.363-1.536l-9.795-.778c-.902-.064-1.325.278-1.349 1.157l.007 5.721c.026.829.46 1.196 1.335 1.267l9.8.725c.977.065 1.322-.285 1.363-1.274l.009-2.641zm2.092.182l-.01 3.232c-.072 1.524-.864 2.366-2.384 2.44-1.17.057-2.349-.021-3.52-.097l-6.443-.491c-.681-.057-1.367-.135-2.03-.292-1.487-.352-2.248-1.121-2.314-2.643l-.01-6.756c.06-1.555.862-2.263 2.422-2.422.534-.054 1.078-.072 1.613-.035l8.933.668a6.64 6.64 0 0 1 1.433.294c1.537.481 2.236 1.409 2.317 3.015l.003.294v2.792h-.009m-119.756 2.182l2.932-.327 7.429-.846c1.084-.135 1.314-.437 1.356-1.521l.001-1.467c-.04-1.21-.342-1.497-1.506-1.381l-5.392.584-4.819.614v4.344zm-.096 2.042v3.733l-2.044.244V24.755l5.064-.654 7.151-.754c.528-.051 1.076-.02 1.602.056 1.145.167 1.933.856 2.045 1.991.123 1.252.13 2.541-.025 3.788-.152 1.229-1.054 1.992-2.239 2.252s-2.408.396-3.619.542l-7.935.911"/><path d="M172.566 20.984v4.952l.006 3.68c.023 1.143.293 1.454 1.379 1.421l9.262-.37c1.212-.062 1.448-.342 1.46-1.547l.01-7.066.072-1.504h2.023l.073 1.193-.001 7.213c-.021 2.578-.827 3.499-3.36 3.646l-9.409.38c-.098.004-.196-.001-.294-.004-2.516-.09-3.358-.912-3.393-3.406l-.008-8.474 2.182-.114m98.389 3.71v1.996l-6.881-.729v10.106l-2.208-.294V25.695l-6.998-.791v-1.998l16.087 1.789m-101.177 76.213l-4.015 5.581c-.166.228-.416.452-.675.547l-5.209 1.836-.138-.275 9.712-8.011.325.322m-18.976-4.101l-.694 4.905c-.04.276-.143.543-.275 1.026l-2.891-3.326c.764-1.508 2.072-2.162 3.86-2.605m12.834-26.143l2.484-.131c.78 2.045.315 2.56-2.609 2.871l.125-2.739"/></g><path d="M248.867 28.48l-.008 2.641c-.04.989-.386 1.339-1.363 1.274l-9.8-.725c-.875-.07-1.309-.438-1.335-1.267l-.007-5.721c.025-.879.447-1.221 1.349-1.157l9.795.778c1.018.089 1.326.472 1.363 1.536l.006 2.641m-117.664 2.364v-4.344l4.819-.614 5.392-.584c1.164-.117 1.466.17 1.506 1.381l-.001 1.467c-.042 1.084-.272 1.386-1.356 1.521l-7.429.846-2.932.327" fill="#231f20"/></svg>